<mxfile host="65bd71144e" pages="3">
    <diagram id="em1b6fMsbLagTfWiKfip" name="*商品情報検索">
        <mxGraphModel dx="1428" dy="459" grid="0" gridSize="10" guides="1" tooltips="1" connect="1" arrows="1" fold="1" page="0" pageScale="1" pageWidth="827" pageHeight="1169" math="0" shadow="0">
            <root>
                <mxCell id="d4U6wp0cc1fB_iKBPiok-0"/>
                <mxCell id="d4U6wp0cc1fB_iKBPiok-1" parent="d4U6wp0cc1fB_iKBPiok-0"/>
                <mxCell id="0" value="正規社員&lt;br&gt;非正規社員" style="shape=umlActor;verticalLabelPosition=bottom;verticalAlign=top;html=1;" parent="d4U6wp0cc1fB_iKBPiok-1" vertex="1">
                    <mxGeometry x="-70" y="280" width="30" height="60" as="geometry"/>
                </mxCell>
                <mxCell id="1" value="ログイン済&lt;br&gt;ホーム画面" style="shape=umlBoundary;whiteSpace=wrap;html=1;fillColor=#dae8fc;strokeColor=#6c8ebf;" parent="d4U6wp0cc1fB_iKBPiok-1" vertex="1">
                    <mxGeometry x="120" y="120" width="100" height="80" as="geometry"/>
                </mxCell>
                <mxCell id="2" value="商品情報&lt;br&gt;セット商品&lt;br&gt;一覧画面" style="shape=umlBoundary;whiteSpace=wrap;html=1;fillColor=#dae8fc;strokeColor=#6c8ebf;" parent="d4U6wp0cc1fB_iKBPiok-1" vertex="1">
                    <mxGeometry x="120" y="280" width="100" height="80" as="geometry"/>
                </mxCell>
                <mxCell id="3" value="商品情報&lt;br&gt;を取得する" style="ellipse;shape=umlControl;whiteSpace=wrap;html=1;fillColor=#f8cecc;strokeColor=#b85450;" parent="d4U6wp0cc1fB_iKBPiok-1" vertex="1">
                    <mxGeometry x="440" y="120" width="70" height="80" as="geometry"/>
                </mxCell>
                <mxCell id="4" value="商品情報&lt;br&gt;モデル" style="ellipse;shape=umlEntity;whiteSpace=wrap;html=1;fillColor=#d5e8d4;strokeColor=#82b366;" parent="d4U6wp0cc1fB_iKBPiok-1" vertex="1">
                    <mxGeometry x="680" y="120" width="80" height="80" as="geometry"/>
                </mxCell>
                <mxCell id="5" value="" style="endArrow=classic;html=1;rounded=0;" parent="d4U6wp0cc1fB_iKBPiok-1" edge="1">
                    <mxGeometry width="50" height="50" relative="1" as="geometry">
                        <mxPoint x="240" y="159.17000000000007" as="sourcePoint"/>
                        <mxPoint x="430" y="159.0000000000001" as="targetPoint"/>
                    </mxGeometry>
                </mxCell>
                <mxCell id="6" value="" style="endArrow=classic;html=1;rounded=0;" parent="d4U6wp0cc1fB_iKBPiok-1" edge="1">
                    <mxGeometry width="50" height="50" relative="1" as="geometry">
                        <mxPoint x="-29.999999999999545" y="319.9999999999999" as="sourcePoint"/>
                        <mxPoint x="110" y="159.99999999999977" as="targetPoint"/>
                    </mxGeometry>
                </mxCell>
                <mxCell id="7" value="「商品情報検索」&lt;br&gt;を押下" style="edgeLabel;html=1;align=center;verticalAlign=middle;resizable=0;points=[];" parent="6" vertex="1" connectable="0">
                    <mxGeometry x="0.2316" y="1" relative="1" as="geometry">
                        <mxPoint x="-16" y="19" as="offset"/>
                    </mxGeometry>
                </mxCell>
                <mxCell id="8" value="" style="endArrow=classic;html=1;rounded=0;" parent="d4U6wp0cc1fB_iKBPiok-1" edge="1">
                    <mxGeometry width="50" height="50" relative="1" as="geometry">
                        <mxPoint x="-29.999999999999545" y="319.9999999999999" as="sourcePoint"/>
                        <mxPoint x="110" y="320" as="targetPoint"/>
                    </mxGeometry>
                </mxCell>
                <mxCell id="9" value="「検索」を押下" style="edgeLabel;html=1;align=center;verticalAlign=middle;resizable=0;points=[];" parent="8" vertex="1" connectable="0">
                    <mxGeometry x="-0.2619" y="1" relative="1" as="geometry">
                        <mxPoint x="18" y="1" as="offset"/>
                    </mxGeometry>
                </mxCell>
                <mxCell id="10" value="" style="endArrow=classic;html=1;rounded=0;startArrow=classic;startFill=1;" parent="d4U6wp0cc1fB_iKBPiok-1" edge="1">
                    <mxGeometry width="50" height="50" relative="1" as="geometry">
                        <mxPoint x="520" y="159.99999999999977" as="sourcePoint"/>
                        <mxPoint x="660" y="160" as="targetPoint"/>
                    </mxGeometry>
                </mxCell>
                <mxCell id="11" value="" style="endArrow=classic;html=1;rounded=0;startArrow=none;startFill=0;endFill=1;" parent="d4U6wp0cc1fB_iKBPiok-1" edge="1">
                    <mxGeometry width="50" height="50" relative="1" as="geometry">
                        <mxPoint x="430" y="169.99999999999977" as="sourcePoint"/>
                        <mxPoint x="240" y="310" as="targetPoint"/>
                    </mxGeometry>
                </mxCell>
                <mxCell id="12" value="検索する" style="ellipse;shape=umlControl;whiteSpace=wrap;html=1;fillColor=#f8cecc;strokeColor=#b85450;" parent="d4U6wp0cc1fB_iKBPiok-1" vertex="1">
                    <mxGeometry x="440" y="280" width="70" height="80" as="geometry"/>
                </mxCell>
                <mxCell id="13" value="" style="endArrow=classic;html=1;rounded=0;startArrow=classic;startFill=1;labelBackgroundColor=default;fontColor=default;" parent="d4U6wp0cc1fB_iKBPiok-1" edge="1">
                    <mxGeometry width="50" height="50" relative="1" as="geometry">
                        <mxPoint x="239" y="320.64" as="sourcePoint"/>
                        <mxPoint x="429.00000000000045" y="320.47000000000014" as="targetPoint"/>
                    </mxGeometry>
                </mxCell>
                <mxCell id="14" value="条件が指定されていないとき、&lt;br&gt;条件に合う商品がないときは&lt;br&gt;エラーメッセージを表示" style="edgeLabel;html=1;align=center;verticalAlign=middle;resizable=0;points=[];fontColor=default;labelBackgroundColor=#FFFFFF;" parent="13" vertex="1" connectable="0">
                    <mxGeometry x="0.2912" y="-2" relative="1" as="geometry">
                        <mxPoint x="-24" y="-4" as="offset"/>
                    </mxGeometry>
                </mxCell>
                <mxCell id="15" value="" style="endArrow=classic;html=1;rounded=0;startArrow=classic;startFill=1;labelBackgroundColor=default;fontColor=default;" parent="d4U6wp0cc1fB_iKBPiok-1" edge="1">
                    <mxGeometry width="50" height="50" relative="1" as="geometry">
                        <mxPoint x="520" y="310" as="sourcePoint"/>
                        <mxPoint x="660" y="170" as="targetPoint"/>
                    </mxGeometry>
                </mxCell>
                <mxCell id="16" value="商品情報検索" style="rounded=0;whiteSpace=wrap;html=1;fillColor=#ffe6cc;strokeColor=#d79b00;fontStyle=1;fontSize=18;" parent="d4U6wp0cc1fB_iKBPiok-1" vertex="1">
                    <mxGeometry x="-150" y="100" width="160" height="60" as="geometry"/>
                </mxCell>
                <mxCell id="17" value="" style="curved=1;endArrow=classic;html=1;rounded=0;labelBackgroundColor=default;fontColor=default;" parent="d4U6wp0cc1fB_iKBPiok-1" edge="1">
                    <mxGeometry width="50" height="50" relative="1" as="geometry">
                        <mxPoint x="520" y="300" as="sourcePoint"/>
                        <mxPoint x="520" y="170" as="targetPoint"/>
                        <Array as="points">
                            <mxPoint x="570" y="220"/>
                        </Array>
                    </mxGeometry>
                </mxCell>
            </root>
        </mxGraphModel>
    </diagram>
    <diagram id="5Pz3x9tau8wW2VPo6GqX" name="*ボトルネック判定">
        <mxGraphModel dx="1428" dy="459" grid="0" gridSize="10" guides="1" tooltips="1" connect="1" arrows="1" fold="1" page="0" pageScale="1" pageWidth="827" pageHeight="1169" math="0" shadow="0">
            <root>
                <mxCell id="mzyuVujSkgFNetJPbpG6-0"/>
                <mxCell id="mzyuVujSkgFNetJPbpG6-1" parent="mzyuVujSkgFNetJPbpG6-0"/>
                <mxCell id="MNrgjv-gWLWsw_UQSgPj-0" value="正規社員&lt;br&gt;非正規社員" style="shape=umlActor;verticalLabelPosition=bottom;verticalAlign=top;html=1;" parent="mzyuVujSkgFNetJPbpG6-1" vertex="1">
                    <mxGeometry x="-70" y="280" width="30" height="60" as="geometry"/>
                </mxCell>
                <mxCell id="MNrgjv-gWLWsw_UQSgPj-1" value="ログイン済&lt;br&gt;ホーム画面" style="shape=umlBoundary;whiteSpace=wrap;html=1;fillColor=#dae8fc;strokeColor=#6c8ebf;" parent="mzyuVujSkgFNetJPbpG6-1" vertex="1">
                    <mxGeometry x="120" y="120" width="100" height="80" as="geometry"/>
                </mxCell>
                <mxCell id="MNrgjv-gWLWsw_UQSgPj-2" value="商品情報&lt;br&gt;を取得する" style="ellipse;shape=umlControl;whiteSpace=wrap;html=1;fillColor=#f8cecc;strokeColor=#b85450;" parent="mzyuVujSkgFNetJPbpG6-1" vertex="1">
                    <mxGeometry x="440" y="120" width="70" height="80" as="geometry"/>
                </mxCell>
                <mxCell id="MNrgjv-gWLWsw_UQSgPj-3" value="ボトルネック&lt;br&gt;モデル" style="ellipse;shape=umlEntity;whiteSpace=wrap;html=1;fillColor=#d5e8d4;strokeColor=#82b366;" parent="mzyuVujSkgFNetJPbpG6-1" vertex="1">
                    <mxGeometry x="680" y="120" width="80" height="80" as="geometry"/>
                </mxCell>
                <mxCell id="MNrgjv-gWLWsw_UQSgPj-4" value="" style="endArrow=classic;html=1;rounded=0;" parent="mzyuVujSkgFNetJPbpG6-1" edge="1">
                    <mxGeometry width="50" height="50" relative="1" as="geometry">
                        <mxPoint x="240" y="159.17000000000007" as="sourcePoint"/>
                        <mxPoint x="430" y="159.0000000000001" as="targetPoint"/>
                    </mxGeometry>
                </mxCell>
                <mxCell id="MNrgjv-gWLWsw_UQSgPj-5" value="" style="endArrow=classic;html=1;rounded=0;labelBackgroundColor=default;fontColor=default;" parent="mzyuVujSkgFNetJPbpG6-1" edge="1">
                    <mxGeometry width="50" height="50" relative="1" as="geometry">
                        <mxPoint x="-30" y="319.9999999999998" as="sourcePoint"/>
                        <mxPoint x="110" y="159.9999999999999" as="targetPoint"/>
                    </mxGeometry>
                </mxCell>
                <mxCell id="MNrgjv-gWLWsw_UQSgPj-6" value="「商品情報検索」&lt;br&gt;を押下" style="edgeLabel;html=1;align=center;verticalAlign=middle;resizable=0;points=[];fontColor=default;labelBackgroundColor=default;" parent="MNrgjv-gWLWsw_UQSgPj-5" vertex="1" connectable="0">
                    <mxGeometry x="0.1398" relative="1" as="geometry">
                        <mxPoint x="-10" y="11" as="offset"/>
                    </mxGeometry>
                </mxCell>
                <mxCell id="MNrgjv-gWLWsw_UQSgPj-7" value="" style="endArrow=classic;html=1;rounded=0;labelBackgroundColor=default;fontColor=default;" parent="mzyuVujSkgFNetJPbpG6-1" edge="1">
                    <mxGeometry width="50" height="50" relative="1" as="geometry">
                        <mxPoint x="-30" y="319.9999999999998" as="sourcePoint"/>
                        <mxPoint x="110" y="320" as="targetPoint"/>
                    </mxGeometry>
                </mxCell>
                <mxCell id="MNrgjv-gWLWsw_UQSgPj-8" value="「ボトルネック」を選択&lt;br&gt;条件を指定し&lt;br&gt;「検索」を押下" style="edgeLabel;html=1;align=center;verticalAlign=middle;resizable=0;points=[];fontColor=default;labelBackgroundColor=#ffffff;" parent="MNrgjv-gWLWsw_UQSgPj-7" vertex="1" connectable="0">
                    <mxGeometry x="0.2429" y="-2" relative="1" as="geometry">
                        <mxPoint x="-17" y="4" as="offset"/>
                    </mxGeometry>
                </mxCell>
                <mxCell id="MNrgjv-gWLWsw_UQSgPj-9" value="" style="endArrow=classic;html=1;rounded=0;startArrow=classic;startFill=1;" parent="mzyuVujSkgFNetJPbpG6-1" edge="1">
                    <mxGeometry width="50" height="50" relative="1" as="geometry">
                        <mxPoint x="520" y="159.9999999999999" as="sourcePoint"/>
                        <mxPoint x="660" y="159.9999999999999" as="targetPoint"/>
                    </mxGeometry>
                </mxCell>
                <mxCell id="MNrgjv-gWLWsw_UQSgPj-10" value="検索画面" style="shape=umlBoundary;whiteSpace=wrap;html=1;fillColor=#dae8fc;strokeColor=#6c8ebf;" parent="mzyuVujSkgFNetJPbpG6-1" vertex="1">
                    <mxGeometry x="120" y="280" width="100" height="80" as="geometry"/>
                </mxCell>
                <mxCell id="MNrgjv-gWLWsw_UQSgPj-11" value="検索する" style="ellipse;shape=umlControl;whiteSpace=wrap;html=1;fillColor=#f8cecc;strokeColor=#b85450;" parent="mzyuVujSkgFNetJPbpG6-1" vertex="1">
                    <mxGeometry x="440" y="280" width="70" height="80" as="geometry"/>
                </mxCell>
                <mxCell id="MNrgjv-gWLWsw_UQSgPj-12" value="" style="endArrow=classic;html=1;rounded=0;" parent="mzyuVujSkgFNetJPbpG6-1" edge="1">
                    <mxGeometry width="50" height="50" relative="1" as="geometry">
                        <mxPoint x="430" y="169.0000000000001" as="sourcePoint"/>
                        <mxPoint x="240" y="310" as="targetPoint"/>
                    </mxGeometry>
                </mxCell>
                <mxCell id="MNrgjv-gWLWsw_UQSgPj-13" value="" style="endArrow=classic;html=1;rounded=0;startArrow=classic;startFill=1;labelBackgroundColor=default;fontColor=default;" parent="mzyuVujSkgFNetJPbpG6-1" edge="1">
                    <mxGeometry width="50" height="50" relative="1" as="geometry">
                        <mxPoint x="240" y="319.5799999999999" as="sourcePoint"/>
                        <mxPoint x="430" y="319.40999999999985" as="targetPoint"/>
                    </mxGeometry>
                </mxCell>
                <mxCell id="MNrgjv-gWLWsw_UQSgPj-14" value="条件が指定されていないときは&lt;br&gt;エラーメッセージを表示" style="edgeLabel;html=1;align=center;verticalAlign=middle;resizable=0;points=[];fontColor=default;labelBackgroundColor=#ffffff;" parent="MNrgjv-gWLWsw_UQSgPj-13" vertex="1" connectable="0">
                    <mxGeometry x="0.2316" y="-1" relative="1" as="geometry">
                        <mxPoint x="-17" as="offset"/>
                    </mxGeometry>
                </mxCell>
                <mxCell id="MNrgjv-gWLWsw_UQSgPj-15" value="" style="endArrow=classic;html=1;rounded=0;startArrow=classic;startFill=1;labelBackgroundColor=default;fontColor=default;" parent="mzyuVujSkgFNetJPbpG6-1" edge="1">
                    <mxGeometry width="50" height="50" relative="1" as="geometry">
                        <mxPoint x="520" y="320" as="sourcePoint"/>
                        <mxPoint x="660" y="169.9999999999999" as="targetPoint"/>
                    </mxGeometry>
                </mxCell>
                <mxCell id="MNrgjv-gWLWsw_UQSgPj-16" value="ボトルネック判定" style="rounded=0;whiteSpace=wrap;html=1;fillColor=#ffe6cc;strokeColor=#d79b00;fontStyle=1;fontSize=18;" parent="mzyuVujSkgFNetJPbpG6-1" vertex="1">
                    <mxGeometry x="-150" y="100" width="160" height="60" as="geometry"/>
                </mxCell>
                <mxCell id="MNrgjv-gWLWsw_UQSgPj-17" value="" style="curved=1;endArrow=classic;html=1;rounded=0;labelBackgroundColor=default;fontColor=default;" parent="mzyuVujSkgFNetJPbpG6-1" edge="1">
                    <mxGeometry width="50" height="50" relative="1" as="geometry">
                        <mxPoint x="520" y="299.9999999999999" as="sourcePoint"/>
                        <mxPoint x="520" y="169.9999999999999" as="targetPoint"/>
                        <Array as="points">
                            <mxPoint x="570" y="220"/>
                        </Array>
                    </mxGeometry>
                </mxCell>
            </root>
        </mxGraphModel>
    </diagram>
    <diagram id="ESTtlpsgeIXyWqRHIMmx" name="*ベンチマーク検索">
        <mxGraphModel dx="1428" dy="459" grid="0" gridSize="10" guides="1" tooltips="1" connect="1" arrows="1" fold="1" page="0" pageScale="1" pageWidth="827" pageHeight="1169" math="0" shadow="0">
            <root>
                <mxCell id="nSvWwGeYQzesH8xxH-ef-0"/>
                <mxCell id="nSvWwGeYQzesH8xxH-ef-1" parent="nSvWwGeYQzesH8xxH-ef-0"/>
                <mxCell id="PKaqCkKwlo9RgHHq3Zaf-0" value="正規社員&lt;br&gt;非正規社員" style="shape=umlActor;verticalLabelPosition=bottom;verticalAlign=top;html=1;" parent="nSvWwGeYQzesH8xxH-ef-1" vertex="1">
                    <mxGeometry x="-70" y="280" width="30" height="60" as="geometry"/>
                </mxCell>
                <mxCell id="PKaqCkKwlo9RgHHq3Zaf-1" value="ログイン済&lt;br&gt;ホーム画面" style="shape=umlBoundary;whiteSpace=wrap;html=1;fillColor=#dae8fc;strokeColor=#6c8ebf;" parent="nSvWwGeYQzesH8xxH-ef-1" vertex="1">
                    <mxGeometry x="120" y="120" width="100" height="80" as="geometry"/>
                </mxCell>
                <mxCell id="PKaqCkKwlo9RgHHq3Zaf-2" value="検索画面" style="shape=umlBoundary;whiteSpace=wrap;html=1;fillColor=#dae8fc;strokeColor=#6c8ebf;" parent="nSvWwGeYQzesH8xxH-ef-1" vertex="1">
                    <mxGeometry x="120" y="280" width="100" height="80" as="geometry"/>
                </mxCell>
                <mxCell id="PKaqCkKwlo9RgHHq3Zaf-3" value="商品情報&lt;br&gt;を取得する" style="ellipse;shape=umlControl;whiteSpace=wrap;html=1;fillColor=#f8cecc;strokeColor=#b85450;" parent="nSvWwGeYQzesH8xxH-ef-1" vertex="1">
                    <mxGeometry x="440" y="120" width="70" height="80" as="geometry"/>
                </mxCell>
                <mxCell id="PKaqCkKwlo9RgHHq3Zaf-4" value="CPUベンチマークモデル&lt;span style=&quot;color: rgba(0 , 0 , 0 , 0) ; font-family: monospace ; font-size: 0px&quot;&gt;%3CmxGraphModel%3E%3Croot%3E%3CmxCell%20id%3D%220%22%2F%3E%3CmxCell%20id%3D%221%22%20parent%3D%220%22%2F%3E%3CmxCell%20id%3D%222%22%20value%3D%22%E3%82%BB%E3%83%83%E3%83%88%E5%95%86%E5%93%81%26lt%3Bbr%26gt%3B%E3%83%A2%E3%83%87%E3%83%AB%22%20style%3D%22ellipse%3Bshape%3DumlEntity%3BwhiteSpace%3Dwrap%3Bhtml%3D1%3BfillColor%3D%23d5e8d4%3BstrokeColor%3D%2382b366%3B%22%20vertex%3D%221%22%20parent%3D%221%22%3E%3CmxGeometry%20x%3D%22720%22%20y%3D%22307%22%20width%3D%2280%22%20height%3D%2280%22%20as%3D%22geometry%22%2F%3E%3C%2FmxCell%3E%3CmxCell%20id%3D%223%22%20value%3D%22%22%20style%3D%22endArrow%3Dclassic%3Bhtml%3D1%3Brounded%3D0%3BstartArrow%3Dclassic%3BstartFill%3D1%3B%22%20edge%3D%221%22%20parent%3D%221%22%3E%3CmxGeometry%20width%3D%2250%22%20height%3D%2250%22%20relative%3D%221%22%20as%3D%22geometry%22%3E%3CmxPoint%20x%3D%22520%22%20y%3D%22160%22%20as%3D%22sourcePoint%22%2F%3E%3CmxPoint%20x%3D%22710%22%20y%3D%22344%22%20as%3D%22targetPoint%22%2F%3E%3C%2FmxGeometry%3E%3C%2FmxCell%3E%3CmxCell%20id%3D%224%22%20value%3D%22%E3%82%BB%E3%83%83%E3%83%88%E5%95%86%E5%93%81%E6%83%85%E5%A0%B1%26lt%3Bbr%26gt%3B%E3%82%92%E7%99%BB%E9%8C%B2%22%20style%3D%22edgeLabel%3Bhtml%3D1%3Balign%3Dcenter%3BverticalAlign%3Dmiddle%3Bresizable%3D0%3Bpoints%3D%5B%5D%3BfontColor%3Ddefault%3BlabelBackgroundColor%3Ddefault%3B%22%20vertex%3D%221%22%20connectable%3D%220%22%20parent%3D%221%22%3E%3CmxGeometry%20x%3D%22654.8918424828953%22%20y%3D%22392.6179554322158%22%20as%3D%22geometry%22%2F%3E%3C%2FmxCell%3E%3CmxCell%20id%3D%225%22%20value%3D%22%E5%95%86%E5%93%81%E6%83%85%E5%A0%B1%26lt%3Bbr%26gt%3B%E3%83%A2%E3%83%87%E3%83%AB%22%20style%3D%22ellipse%3Bshape%3DumlEntity%3BwhiteSpace%3Dwrap%3Bhtml%3D1%3BfillColor%3D%23d5e8d4%3BstrokeColor%3D%2382b366%3B%22%20vertex%3D%221%22%20parent%3D%221%22%3E%3CmxGeometry%20x%3D%22720%22%20y%3D%22103%22%20width%3D%2280%22%20height%3D%2280%22%20as%3D%22geometry%22%2F%3E%3C%2FmxCell%3E%3CmxCell%20id%3D%226%22%20value%3D%22%E5%BA%97%E8%88%97%E6%83%85%E5%A0%B1%26lt%3Bbr%26gt%3B%E3%83%A2%E3%83%87%E3%83%AB%22%20style%3D%22ellipse%3Bshape%3DumlEntity%3BwhiteSpace%3Dwrap%3Bhtml%3D1%3BfillColor%3D%23d5e8d4%3BstrokeColor%3D%2382b366%3B%22%20vertex%3D%221%22%20parent%3D%221%22%3E%3CmxGeometry%20x%3D%22720%22%20y%3D%22205%22%20width%3D%2280%22%20height%3D%2280%22%20as%3D%22geometry%22%2F%3E%3C%2FmxCell%3E%3CmxCell%20id%3D%227%22%20value%3D%22%22%20style%3D%22endArrow%3Dclassic%3Bhtml%3D1%3Brounded%3D0%3BstartArrow%3Dclassic%3BstartFill%3D1%3B%22%20edge%3D%221%22%20parent%3D%221%22%3E%3CmxGeometry%20width%3D%2250%22%20height%3D%2250%22%20relative%3D%221%22%20as%3D%22geometry%22%3E%3CmxPoint%20x%3D%22525%22%20y%3D%22155%22%20as%3D%22sourcePoint%22%2F%3E%3CmxPoint%20x%3D%22715%22%20y%3D%22243%22%20as%3D%22targetPoint%22%2F%3E%3C%2FmxGeometry%3E%3C%2FmxCell%3E%3CmxCell%20id%3D%228%22%20value%3D%22%22%20style%3D%22endArrow%3Dclassic%3Bhtml%3D1%3Brounded%3D0%3BstartArrow%3Dclassic%3BstartFill%3D1%3B%22%20edge%3D%221%22%20parent%3D%221%22%3E%3CmxGeometry%20width%3D%2250%22%20height%3D%2250%22%20relative%3D%221%22%20as%3D%22geometry%22%3E%3CmxPoint%20x%3D%22526%22%20y%3D%22150%22%20as%3D%22sourcePoint%22%2F%3E%3CmxPoint%20x%3D%22716%22%20y%3D%22150%22%20as%3D%22targetPoint%22%2F%3E%3C%2FmxGeometry%3E%3C%2FmxCell%3E%3C%2Froot%3E%3C%2FmxGraphModel%3E&lt;/span&gt;" style="ellipse;shape=umlEntity;whiteSpace=wrap;html=1;fillColor=#d5e8d4;strokeColor=#82b366;" parent="nSvWwGeYQzesH8xxH-ef-1" vertex="1">
                    <mxGeometry x="680" y="120" width="80" height="80" as="geometry"/>
                </mxCell>
                <mxCell id="PKaqCkKwlo9RgHHq3Zaf-5" value="" style="endArrow=classic;html=1;rounded=0;" parent="nSvWwGeYQzesH8xxH-ef-1" edge="1">
                    <mxGeometry width="50" height="50" relative="1" as="geometry">
                        <mxPoint x="240" y="159.17000000000007" as="sourcePoint"/>
                        <mxPoint x="430" y="159.0000000000001" as="targetPoint"/>
                    </mxGeometry>
                </mxCell>
                <mxCell id="PKaqCkKwlo9RgHHq3Zaf-6" value="" style="endArrow=classic;html=1;rounded=0;" parent="nSvWwGeYQzesH8xxH-ef-1" edge="1">
                    <mxGeometry width="50" height="50" relative="1" as="geometry">
                        <mxPoint x="-30" y="319.99999999999955" as="sourcePoint"/>
                        <mxPoint x="110" y="159.9999999999999" as="targetPoint"/>
                    </mxGeometry>
                </mxCell>
                <mxCell id="PKaqCkKwlo9RgHHq3Zaf-7" value="「商品情報検索」&lt;br&gt;を押下" style="edgeLabel;html=1;align=center;verticalAlign=middle;resizable=0;points=[];fontColor=default;" parent="PKaqCkKwlo9RgHHq3Zaf-6" vertex="1" connectable="0">
                    <mxGeometry x="0.1796" y="-1" relative="1" as="geometry">
                        <mxPoint y="-1" as="offset"/>
                    </mxGeometry>
                </mxCell>
                <mxCell id="PKaqCkKwlo9RgHHq3Zaf-8" value="" style="endArrow=classic;html=1;rounded=0;" parent="nSvWwGeYQzesH8xxH-ef-1" edge="1">
                    <mxGeometry width="50" height="50" relative="1" as="geometry">
                        <mxPoint x="-30" y="319.99999999999955" as="sourcePoint"/>
                        <mxPoint x="110" y="320" as="targetPoint"/>
                    </mxGeometry>
                </mxCell>
                <mxCell id="PKaqCkKwlo9RgHHq3Zaf-9" value="「ベンチマーク」を押下&lt;br&gt;条件を指定&lt;br&gt;「検索」を押下" style="edgeLabel;html=1;align=center;verticalAlign=middle;resizable=0;points=[];fontColor=default;" parent="PKaqCkKwlo9RgHHq3Zaf-8" vertex="1" connectable="0">
                    <mxGeometry x="0.2" relative="1" as="geometry">
                        <mxPoint x="-17" y="25" as="offset"/>
                    </mxGeometry>
                </mxCell>
                <mxCell id="PKaqCkKwlo9RgHHq3Zaf-10" value="" style="endArrow=classic;html=1;rounded=0;startArrow=classic;startFill=1;" parent="nSvWwGeYQzesH8xxH-ef-1" edge="1">
                    <mxGeometry width="50" height="50" relative="1" as="geometry">
                        <mxPoint x="520" y="159.9999999999999" as="sourcePoint"/>
                        <mxPoint x="659.9999999999995" y="159.9999999999999" as="targetPoint"/>
                    </mxGeometry>
                </mxCell>
                <mxCell id="PKaqCkKwlo9RgHHq3Zaf-11" value="" style="endArrow=classic;html=1;rounded=0;startArrow=none;startFill=0;endFill=1;" parent="nSvWwGeYQzesH8xxH-ef-1" edge="1">
                    <mxGeometry width="50" height="50" relative="1" as="geometry">
                        <mxPoint x="430" y="169.9999999999999" as="sourcePoint"/>
                        <mxPoint x="240" y="310" as="targetPoint"/>
                    </mxGeometry>
                </mxCell>
                <mxCell id="PKaqCkKwlo9RgHHq3Zaf-12" value="" style="endArrow=classic;html=1;rounded=0;startArrow=classic;startFill=1;" parent="nSvWwGeYQzesH8xxH-ef-1" edge="1">
                    <mxGeometry width="50" height="50" relative="1" as="geometry">
                        <mxPoint x="240" y="319.34000000000015" as="sourcePoint"/>
                        <mxPoint x="430" y="319.16999999999985" as="targetPoint"/>
                    </mxGeometry>
                </mxCell>
                <mxCell id="PKaqCkKwlo9RgHHq3Zaf-13" value="条件が指定されていないときは&lt;br&gt;エラーメッセージを表示" style="edgeLabel;html=1;align=center;verticalAlign=middle;resizable=0;points=[];fontColor=default;" parent="PKaqCkKwlo9RgHHq3Zaf-12" vertex="1" connectable="0">
                    <mxGeometry x="-0.2386" y="2" relative="1" as="geometry">
                        <mxPoint x="22" y="5" as="offset"/>
                    </mxGeometry>
                </mxCell>
                <mxCell id="PKaqCkKwlo9RgHHq3Zaf-14" value="検索する" style="ellipse;shape=umlControl;whiteSpace=wrap;html=1;fillColor=#f8cecc;strokeColor=#b85450;" parent="nSvWwGeYQzesH8xxH-ef-1" vertex="1">
                    <mxGeometry x="440" y="280" width="70" height="80" as="geometry"/>
                </mxCell>
                <mxCell id="PKaqCkKwlo9RgHHq3Zaf-15" value="" style="endArrow=classic;html=1;rounded=0;startArrow=classic;startFill=1;endFill=1;labelBackgroundColor=default;fontColor=default;" parent="nSvWwGeYQzesH8xxH-ef-1" edge="1">
                    <mxGeometry width="50" height="50" relative="1" as="geometry">
                        <mxPoint x="520" y="320" as="sourcePoint"/>
                        <mxPoint x="660" y="169.9999999999999" as="targetPoint"/>
                    </mxGeometry>
                </mxCell>
                <mxCell id="PKaqCkKwlo9RgHHq3Zaf-16" value="ベンチマーク検索" style="rounded=0;whiteSpace=wrap;html=1;fillColor=#ffe6cc;strokeColor=#d79b00;fontStyle=1;fontSize=18;" parent="nSvWwGeYQzesH8xxH-ef-1" vertex="1">
                    <mxGeometry x="-150" y="100" width="160" height="60" as="geometry"/>
                </mxCell>
                <mxCell id="PKaqCkKwlo9RgHHq3Zaf-17" value="" style="curved=1;endArrow=classic;html=1;rounded=0;labelBackgroundColor=default;fontColor=default;" parent="nSvWwGeYQzesH8xxH-ef-1" edge="1">
                    <mxGeometry width="50" height="50" relative="1" as="geometry">
                        <mxPoint x="520" y="299.9999999999999" as="sourcePoint"/>
                        <mxPoint x="520" y="169.9999999999999" as="targetPoint"/>
                        <Array as="points">
                            <mxPoint x="570" y="220"/>
                        </Array>
                    </mxGeometry>
                </mxCell>
                <mxCell id="_6YADk6TQ0WGNBARCi8L-0" value="GPUベンチマークモデル&lt;span style=&quot;color: rgba(0 , 0 , 0 , 0) ; font-family: monospace ; font-size: 0px&quot;&gt;%3CmxGraphModel%3E%3Croot%3E%3CmxCell%20id%3D%220%22%2F%3E%3CmxCell%20id%3D%221%22%20parent%3D%220%22%2F%3E%3CmxCell%20id%3D%222%22%20value%3D%22%E3%82%BB%E3%83%83%E3%83%88%E5%95%86%E5%93%81%26lt%3Bbr%26gt%3B%E3%83%A2%E3%83%87%E3%83%AB%22%20style%3D%22ellipse%3Bshape%3DumlEntity%3BwhiteSpace%3Dwrap%3Bhtml%3D1%3BfillColor%3D%23d5e8d4%3BstrokeColor%3D%2382b366%3B%22%20vertex%3D%221%22%20parent%3D%221%22%3E%3CmxGeometry%20x%3D%22720%22%20y%3D%22307%22%20width%3D%2280%22%20height%3D%2280%22%20as%3D%22geometry%22%2F%3E%3C%2FmxCell%3E%3CmxCell%20id%3D%223%22%20value%3D%22%22%20style%3D%22endArrow%3Dclassic%3Bhtml%3D1%3Brounded%3D0%3BstartArrow%3Dclassic%3BstartFill%3D1%3B%22%20edge%3D%221%22%20parent%3D%221%22%3E%3CmxGeometry%20width%3D%2250%22%20height%3D%2250%22%20relative%3D%221%22%20as%3D%22geometry%22%3E%3CmxPoint%20x%3D%22520%22%20y%3D%22160%22%20as%3D%22sourcePoint%22%2F%3E%3CmxPoint%20x%3D%22710%22%20y%3D%22344%22%20as%3D%22targetPoint%22%2F%3E%3C%2FmxGeometry%3E%3C%2FmxCell%3E%3CmxCell%20id%3D%224%22%20value%3D%22%E3%82%BB%E3%83%83%E3%83%88%E5%95%86%E5%93%81%E6%83%85%E5%A0%B1%26lt%3Bbr%26gt%3B%E3%82%92%E7%99%BB%E9%8C%B2%22%20style%3D%22edgeLabel%3Bhtml%3D1%3Balign%3Dcenter%3BverticalAlign%3Dmiddle%3Bresizable%3D0%3Bpoints%3D%5B%5D%3BfontColor%3Ddefault%3BlabelBackgroundColor%3Ddefault%3B%22%20vertex%3D%221%22%20connectable%3D%220%22%20parent%3D%221%22%3E%3CmxGeometry%20x%3D%22654.8918424828953%22%20y%3D%22392.6179554322158%22%20as%3D%22geometry%22%2F%3E%3C%2FmxCell%3E%3CmxCell%20id%3D%225%22%20value%3D%22%E5%95%86%E5%93%81%E6%83%85%E5%A0%B1%26lt%3Bbr%26gt%3B%E3%83%A2%E3%83%87%E3%83%AB%22%20style%3D%22ellipse%3Bshape%3DumlEntity%3BwhiteSpace%3Dwrap%3Bhtml%3D1%3BfillColor%3D%23d5e8d4%3BstrokeColor%3D%2382b366%3B%22%20vertex%3D%221%22%20parent%3D%221%22%3E%3CmxGeometry%20x%3D%22720%22%20y%3D%22103%22%20width%3D%2280%22%20height%3D%2280%22%20as%3D%22geometry%22%2F%3E%3C%2FmxCell%3E%3CmxCell%20id%3D%226%22%20value%3D%22%E5%BA%97%E8%88%97%E6%83%85%E5%A0%B1%26lt%3Bbr%26gt%3B%E3%83%A2%E3%83%87%E3%83%AB%22%20style%3D%22ellipse%3Bshape%3DumlEntity%3BwhiteSpace%3Dwrap%3Bhtml%3D1%3BfillColor%3D%23d5e8d4%3BstrokeColor%3D%2382b366%3B%22%20vertex%3D%221%22%20parent%3D%221%22%3E%3CmxGeometry%20x%3D%22720%22%20y%3D%22205%22%20width%3D%2280%22%20height%3D%2280%22%20as%3D%22geometry%22%2F%3E%3C%2FmxCell%3E%3CmxCell%20id%3D%227%22%20value%3D%22%22%20style%3D%22endArrow%3Dclassic%3Bhtml%3D1%3Brounded%3D0%3BstartArrow%3Dclassic%3BstartFill%3D1%3B%22%20edge%3D%221%22%20parent%3D%221%22%3E%3CmxGeometry%20width%3D%2250%22%20height%3D%2250%22%20relative%3D%221%22%20as%3D%22geometry%22%3E%3CmxPoint%20x%3D%22525%22%20y%3D%22155%22%20as%3D%22sourcePoint%22%2F%3E%3CmxPoint%20x%3D%22715%22%20y%3D%22243%22%20as%3D%22targetPoint%22%2F%3E%3C%2FmxGeometry%3E%3C%2FmxCell%3E%3CmxCell%20id%3D%228%22%20value%3D%22%22%20style%3D%22endArrow%3Dclassic%3Bhtml%3D1%3Brounded%3D0%3BstartArrow%3Dclassic%3BstartFill%3D1%3B%22%20edge%3D%221%22%20parent%3D%221%22%3E%3CmxGeometry%20width%3D%2250%22%20height%3D%2250%22%20relative%3D%221%22%20as%3D%22geometry%22%3E%3CmxPoint%20x%3D%22526%22%20y%3D%22150%22%20as%3D%22sourcePoint%22%2F%3E%3CmxPoint%20x%3D%22716%22%20y%3D%22150%22%20as%3D%22targetPoint%22%2F%3E%3C%2FmxGeometry%3E%3C%2FmxCell%3E%3C%2Froot%3E%3C%2FmxGraphModel%3E&lt;/span&gt;" style="ellipse;shape=umlEntity;whiteSpace=wrap;html=1;fillColor=#d5e8d4;strokeColor=#82b366;" vertex="1" parent="nSvWwGeYQzesH8xxH-ef-1">
                    <mxGeometry x="684" y="270" width="80" height="80" as="geometry"/>
                </mxCell>
                <mxCell id="_6YADk6TQ0WGNBARCi8L-1" value="" style="endArrow=classic;html=1;rounded=0;startArrow=classic;startFill=1;endFill=1;labelBackgroundColor=default;fontColor=default;" edge="1" parent="nSvWwGeYQzesH8xxH-ef-1">
                    <mxGeometry width="50" height="50" relative="1" as="geometry">
                        <mxPoint x="530" y="330" as="sourcePoint"/>
                        <mxPoint x="680" y="325" as="targetPoint"/>
                    </mxGeometry>
                </mxCell>
                <mxCell id="_6YADk6TQ0WGNBARCi8L-2" value="" style="endArrow=classic;html=1;rounded=0;startArrow=classic;startFill=1;jumpStyle=arc;" edge="1" parent="nSvWwGeYQzesH8xxH-ef-1">
                    <mxGeometry width="50" height="50" relative="1" as="geometry">
                        <mxPoint x="530" y="169.9999999999999" as="sourcePoint"/>
                        <mxPoint x="675" y="318" as="targetPoint"/>
                    </mxGeometry>
                </mxCell>
            </root>
        </mxGraphModel>
    </diagram>
</mxfile>